<svg width="518" height="518" viewBox="0 0 518 518" fill="none" xmlns="http://www.w3.org/2000/svg">
<g clip-path="url(#clip0)">
<g clip-path="url(#clip1)">
<path d="M-93 434.75C-93 455.526 -84.747 475.45 -70.0567 490.14C-55.3663 504.831 -35.442 513.084 -14.6667 513.084H533.667C554.442 513.084 574.366 504.831 589.057 490.14C603.747 475.45 612 455.526 612 434.75V356.417H-93V434.75Z" fill="#138808"/>
<path d="M612 160.583H-93V356.416H612V160.583Z" fill="#EEEEEE"/>
<path d="M612 160.584V82.2503C612 61.475 603.747 41.5506 589.057 26.8603C574.366 12.1699 554.442 3.91699 533.667 3.91699H-14.6667C-35.442 3.91699 -55.3663 12.1699 -70.0567 26.8603C-84.747 41.5506 -93 61.475 -93 82.2503L-93 160.584H612Z" fill="#FF9933"/>
<path d="M259.5 336.834C302.762 336.834 337.833 301.763 337.833 258.5C337.833 215.238 302.762 180.167 259.5 180.167C216.238 180.167 181.167 215.238 181.167 258.5C181.167 301.763 216.238 336.834 259.5 336.834Z" fill="#000080"/>
<path d="M259.5 317.25C291.947 317.25 318.25 290.947 318.25 258.5C318.25 226.053 291.947 199.75 259.5 199.75C227.053 199.75 200.75 226.053 200.75 258.5C200.75 290.947 227.053 317.25 259.5 317.25Z" fill="#EEEEEE"/>
<path d="M259.5 199.75L262.046 239.113L274.677 201.708L267.04 240.385L288.875 207.583L271.446 242.931L301.017 216.983L275.069 246.554L310.417 229.125L277.615 250.96L316.292 243.323L278.887 255.954L318.25 258.5L278.887 261.046L316.292 273.677L277.615 266.04L310.417 287.875L275.069 270.446L301.017 300.017L271.446 274.069L288.875 309.417L267.04 276.615L274.677 315.292L262.046 277.887L259.5 317.25L256.954 277.887L244.323 315.292L251.96 276.615L230.125 309.417L247.554 274.069L217.983 300.017L243.931 270.446L208.583 287.875L241.385 266.04L202.708 273.677L240.113 261.046L200.75 258.5L240.113 255.954L202.708 243.323L241.385 250.96L208.583 229.125L243.931 246.554L217.983 216.983L247.554 242.931L230.125 207.583L251.96 240.385L244.323 201.708L256.954 239.113L259.5 199.75Z" fill="#6666B3"/>
<path d="M259.5 278.084C270.316 278.084 279.083 269.316 279.083 258.5C279.083 247.685 270.316 238.917 259.5 238.917C248.685 238.917 239.917 247.685 239.917 258.5C239.917 269.316 248.685 278.084 259.5 278.084Z" fill="#000080"/>
</g>
</g>
<rect x="3" y="3" width="512" height="512" rx="256" stroke="#B6C4CE" stroke-width="5"/>
<defs>
<clipPath id="clip0">
<rect x="3" y="3" width="512" height="512" rx="256" fill="white"/>
</clipPath>
<clipPath id="clip1">
<rect width="705" height="705" fill="white" transform="translate(-93 -94)"/>
</clipPath>
</defs>
</svg>
